<svg xmlns="http://www.w3.org/2000/svg" viewBox="0 0 320 420">
  <defs>
    <linearGradient id="base" x1="0" x2="0" y1="0" y2="1">
      <stop offset="0%" stop-color="#f6e7d8" />
      <stop offset="100%" stop-color="#e0c3a0" />
    </linearGradient>
    <linearGradient id="accent" x1="0" x2="1" y1="0" y2="1">
      <stop offset="0%" stop-color="#c4845f" />
      <stop offset="100%" stop-color="#9c5c36" />
    </linearGradient>
    <filter id="shadow" x="-20%" y="-20%" width="140%" height="140%">
      <feDropShadow dx="0" dy="18" stdDeviation="14" flood-color="#2d1e15" flood-opacity="0.25" />
    </filter>
  </defs>
  <rect x="0" y="0" width="320" height="420" fill="#f9f4ee" />
  <g filter="url(#shadow)">
    <path d="M90 40h140c18 0 32 14 32 32 0 18-14 32-32 32H90c-18 0-32-14-32-32 0-18 14-32 32-32z" fill="#d9c4b3" />
    <path d="M110 92h100c14 0 26 12 26 26 0 6-2 12-5 17l-36 64a14 14 0 0 0-2 7c0 3 1 6 2 9l28 84c4 13 4 27-1 40-9 24-32 39-58 39h-10c-26 0-49-15-58-39-5-13-5-27-1-40l28-84c1-3 2-6 2-9 0-3 0-5-2-7l-36-64c-3-5-5-11-5-17 0-14 12-26 26-26z" fill="url(#base)" stroke="#b79272" stroke-width="6" />
    <path d="M119 124h82c8 0 14 6 14 14 0 3-1 6-2 9l-28 54c-3 6-5 12-5 19 0 5 1 10 3 15l23 66c2 8 2 17-1 24-5 13-18 22-33 22h-19c-15 0-28-9-33-22-3-7-3-16-1-24l23-66c2-5 3-10 3-15 0-7-2-13-5-19l-28-54c-1-3-2-6-2-9 0-8 6-14 14-14z" fill="url(#accent)" opacity="0.55" />
    <ellipse cx="160" cy="52" rx="88" ry="12" fill="#cba98b" />
  </g>
  <text x="50%" y="390" text-anchor="middle" font-family="'Quicksand', 'Segoe UI', sans-serif" font-size="42" fill="#8a5a3a">Vasos Decorativos</text>
</svg>
